# xmcd
#
# Track frame offsets:
# 150
# 13577
# 28882
# 40535
# 53492
# 64523
# 79077
# 90224
# 106957
# 117320
# 126348
# 140780
# 152001
# 169793
#
# Disc length: 2396 seconds
#
#
# Revision: 0
# Processed by: cddbd v1.5.2PL0 Copyright (c) Steve Scherf et al.
# Submitted via: Nero 7, 11, 10, 0 
#
DISCID=ab095a0e
DTITLE=Nosey Joe and The Pool Kings - Nosey Joe and The Pool Kings
DYEAR=2003
DGENRE=Blues
TTITLE0=Ballroom King
TTITLE1=Tell Me Baby
TTITLE2=Ella Mae
TTITLE3=Gonna Sell My Soul
TTITLE4=Chattanoga Choo Choo
TTITLE5=Sweetie Pie
TTITLE6=Can't We Take It From The Start
TTITLE7=You Don't Have To Worry
TTITLE8=Birth Of The Boogie
TTITLE9=Slowboat To China
TTITLE10=Breakin' Up The House
TTITLE11=Club Jump
TTITLE12=Baby Jean
TTITLE13=Unknown
EXTD=
EXTT0=Ballroom King
EXTT1=Tell Me Baby
EXTT2=Ella Mae
EXTT3=Gonna Sell My Soul
EXTT4=Chattanoga Choo Choo
EXTT5=Sweetie Pie
EXTT6=Can't We Take It From The Start
EXTT7=You Don't Have To Worry
EXTT8=Birth Of The Boogie
EXTT9=Slowboat To China
EXTT10=Breakin' Up The House
EXTT11=Club Jump
EXTT12=Baby Jean
EXTT13=Unknown
PLAYORDER=
